<svg id="Layer_1" data-name="Layer 1" xmlns="http://www.w3.org/2000/svg" xmlns:xlink="http://www.w3.org/1999/xlink" viewBox="0 0 1257 265"><defs><style>.cls-1{fill:none;}.cls-10,.cls-11,.cls-12,.cls-13,.cls-14,.cls-15,.cls-16,.cls-17,.cls-18,.cls-19,.cls-2,.cls-20,.cls-21,.cls-22,.cls-23,.cls-24,.cls-25,.cls-26,.cls-27,.cls-28,.cls-29,.cls-30,.cls-31,.cls-32,.cls-33,.cls-34,.cls-35,.cls-36,.cls-37,.cls-38,.cls-39,.cls-4,.cls-40,.cls-41,.cls-42,.cls-43,.cls-44,.cls-45,.cls-46,.cls-47,.cls-48,.cls-49,.cls-5,.cls-50,.cls-51,.cls-52,.cls-53,.cls-54,.cls-55,.cls-56,.cls-57,.cls-58,.cls-59,.cls-6,.cls-60,.cls-61,.cls-62,.cls-63,.cls-64,.cls-65,.cls-66,.cls-67,.cls-68,.cls-69,.cls-7,.cls-70,.cls-71,.cls-72,.cls-73,.cls-74,.cls-75,.cls-76,.cls-77,.cls-78,.cls-79,.cls-8,.cls-80,.cls-81,.cls-82,.cls-83,.cls-84,.cls-85,.cls-9{mix-blend-mode:multiply;}.cls-2{fill:url(#linear-gradient);}.cls-3{fill:#fff;}.cls-4{fill:url(#linear-gradient-2);}.cls-5{fill:url(#linear-gradient-3);}.cls-6{fill:url(#linear-gradient-4);}.cls-7{fill:url(#linear-gradient-5);}.cls-8{fill:url(#linear-gradient-6);}.cls-9{fill:url(#linear-gradient-7);}.cls-10{fill:url(#linear-gradient-8);}.cls-11{fill:url(#linear-gradient-9);}.cls-12{fill:url(#linear-gradient-10);}.cls-13{fill:url(#linear-gradient-11);}.cls-14{fill:url(#linear-gradient-12);}.cls-15{fill:url(#linear-gradient-13);}.cls-16{fill:url(#linear-gradient-14);}.cls-17{fill:url(#linear-gradient-15);}.cls-18{fill:url(#linear-gradient-16);}.cls-19{fill:url(#linear-gradient-17);}.cls-20{fill:url(#linear-gradient-18);}.cls-21{fill:url(#linear-gradient-19);}.cls-22{fill:url(#linear-gradient-20);}.cls-23{fill:url(#linear-gradient-21);}.cls-24{fill:url(#linear-gradient-22);}.cls-25{fill:url(#linear-gradient-23);}.cls-26{fill:url(#linear-gradient-24);}.cls-27{fill:url(#linear-gradient-25);}.cls-28{fill:url(#linear-gradient-26);}.cls-29{fill:url(#linear-gradient-27);}.cls-30{fill:url(#linear-gradient-28);}.cls-31{fill:url(#linear-gradient-29);}.cls-32{fill:url(#linear-gradient-30);}.cls-33{fill:url(#linear-gradient-31);}.cls-34{fill:url(#linear-gradient-32);}.cls-35{fill:url(#linear-gradient-33);}.cls-36{fill:url(#linear-gradient-34);}.cls-37{fill:url(#linear-gradient-35);}.cls-38{fill:url(#linear-gradient-36);}.cls-39{fill:url(#linear-gradient-37);}.cls-40{fill:url(#linear-gradient-38);}.cls-41{fill:url(#linear-gradient-39);}.cls-42{fill:url(#linear-gradient-40);}.cls-43{fill:url(#linear-gradient-41);}.cls-44{fill:url(#linear-gradient-42);}.cls-45{fill:url(#linear-gradient-43);}.cls-46{fill:url(#linear-gradient-44);}.cls-47{fill:url(#linear-gradient-45);}.cls-48{fill:url(#linear-gradient-46);}.cls-49{fill:url(#linear-gradient-47);}.cls-50{fill:url(#linear-gradient-48);}.cls-51{fill:url(#linear-gradient-49);}.cls-52{fill:url(#linear-gradient-50);}.cls-53{fill:url(#linear-gradient-51);}.cls-54{fill:url(#linear-gradient-52);}.cls-55{fill:url(#linear-gradient-53);}.cls-56{fill:url(#linear-gradient-54);}.cls-57{fill:url(#linear-gradient-55);}.cls-58{fill:url(#linear-gradient-56);}.cls-59{fill:url(#linear-gradient-57);}.cls-60{fill:url(#linear-gradient-58);}.cls-61{fill:url(#linear-gradient-59);}.cls-62{fill:url(#linear-gradient-60);}.cls-63{fill:url(#linear-gradient-61);}.cls-64{fill:url(#linear-gradient-62);}.cls-65{fill:url(#linear-gradient-63);}.cls-66{fill:url(#linear-gradient-64);}.cls-67{fill:url(#linear-gradient-65);}.cls-68{fill:url(#linear-gradient-66);}.cls-69{fill:url(#linear-gradient-67);}.cls-70{fill:url(#linear-gradient-68);}.cls-71{fill:url(#linear-gradient-69);}.cls-72{fill:url(#linear-gradient-70);}.cls-73{fill:url(#linear-gradient-71);}.cls-74{fill:url(#linear-gradient-72);}.cls-75{fill:url(#linear-gradient-73);}.cls-76{fill:url(#linear-gradient-74);}.cls-77{fill:url(#linear-gradient-75);}.cls-78{fill:url(#linear-gradient-76);}.cls-79{fill:url(#linear-gradient-77);}.cls-80{fill:url(#linear-gradient-78);}.cls-81{fill:url(#linear-gradient-79);}.cls-82{fill:url(#linear-gradient-80);}.cls-83{fill:url(#linear-gradient-81);}.cls-84{fill:url(#linear-gradient-82);}.cls-85{fill:url(#linear-gradient-83);}.cls-86{stroke:#000;stroke-miterlimit:10;fill:url(#Vortex_1);}.cls-87{font-size:150px;font-family:Perpetua Titling MT;}.cls-88{font-size:72px;}</style><linearGradient id="linear-gradient" x1="-76895.05" y1="85206.1" x2="-76840.92" y2="85096.44" gradientTransform="matrix(0, -1, -1, 0, 85335.56, -76595.35)" gradientUnits="userSpaceOnUse"><stop offset="0.05" stop-color="#fff" stop-opacity="0"/><stop offset="0.14" stop-color="#fcfefd" stop-opacity="0.05"/><stop offset="0.3" stop-color="#f3faf9" stop-opacity="0.18"/><stop offset="0.51" stop-color="#e5f4f1" stop-opacity="0.4"/><stop offset="0.77" stop-color="#d1ebe7" stop-opacity="0.7"/><stop offset="1" stop-color="#bde3dc"/></linearGradient><linearGradient id="linear-gradient-2" x1="-84562.59" y1="-92785.62" x2="-84508.45" y2="-92895.29" gradientTransform="matrix(1, 0, 0, -1, 84765.42, -92583.94)" xlink:href="#linear-gradient"/><linearGradient id="linear-gradient-3" x1="93429.13" y1="-100453.16" x2="93483.27" y2="-100562.82" gradientTransform="matrix(0, 1, 1, 0, 100754.01, -93154.07)" xlink:href="#linear-gradient"/><linearGradient id="linear-gradient-4" x1="101096.66" y1="77538.57" x2="101150.79" y2="77428.9" gradientTransform="matrix(-1, 0, 0, 1, 101324.13, -77165.48)" xlink:href="#linear-gradient"/><linearGradient id="linear-gradient-5" x1="-84593.82" y1="-92856.63" x2="-84513.71" y2="-92856.63" gradientTransform="matrix(1, 0, 0, -1, 84765.42, -92583.94)" gradientUnits="userSpaceOnUse"><stop offset="0.05" stop-color="#fff" stop-opacity="0"/><stop offset="0.2" stop-color="#f2faf8" stop-opacity="0.19"/><stop offset="0.49" stop-color="#dcf0ec" stop-opacity="0.53"/><stop offset="0.73" stop-color="#cbe9e3" stop-opacity="0.79"/><stop offset="0.91" stop-color="#c1e5de" stop-opacity="0.94"/><stop offset="1" stop-color="#bde3dc"/></linearGradient><linearGradient id="linear-gradient-6" x1="-76926.28" y1="85135.1" x2="-76846.18" y2="85135.1" gradientTransform="matrix(0, -1, -1, 0, 85335.56, -76595.35)" xlink:href="#linear-gradient-5"/><linearGradient id="linear-gradient-7" x1="93397.9" y1="-100524.17" x2="93478.01" y2="-100524.17" gradientTransform="matrix(0, 1, 1, 0, 100754.01, -93154.07)" xlink:href="#linear-gradient-5"/><linearGradient id="linear-gradient-8" x1="-1495.87" y1="112796.54" x2="-1457.06" y2="112717.91" gradientTransform="matrix(-0.71, -0.71, -0.71, 0.71, 78755.89, -80479.08)" xlink:href="#linear-gradient"/><linearGradient id="linear-gradient-9" x1="-112173.8" y1="-17414.34" x2="-112134.98" y2="-17492.97" gradientTransform="matrix(0.71, -0.71, -0.71, -0.71, 67047.1, -91381.59)" xlink:href="#linear-gradient"/><linearGradient id="linear-gradient-10" x1="18037.08" y1="-128092.26" x2="18075.9" y2="-128170.89" gradientTransform="matrix(0.71, 0.71, 0.71, -0.71, 77949.61, -103090.37)" xlink:href="#linear-gradient"/><linearGradient id="linear-gradient-11" x1="18014.69" y1="-128143.18" x2="18072.13" y2="-128143.18" gradientTransform="matrix(0.71, 0.71, 0.71, -0.71, 77949.61, -103090.37)" xlink:href="#linear-gradient-5"/><linearGradient id="linear-gradient-12" x1="-76895.05" y1="85451.55" x2="-76840.92" y2="85341.89" xlink:href="#linear-gradient"/><linearGradient id="linear-gradient-13" x1="-84808.04" y1="-92785.62" x2="-84753.9" y2="-92895.29" gradientTransform="matrix(1, 0, 0, -1, 84765.42, -92583.94)" xlink:href="#linear-gradient"/><linearGradient id="linear-gradient-14" x1="93429.13" y1="-100698.61" x2="93483.27" y2="-100808.27" gradientTransform="matrix(0, 1, 1, 0, 100754.01, -93154.07)" xlink:href="#linear-gradient"/><linearGradient id="linear-gradient-15" x1="101342.11" y1="77538.57" x2="101396.24" y2="77428.9" gradientTransform="matrix(-1, 0, 0, 1, 101324.13, -77165.48)" xlink:href="#linear-gradient"/><linearGradient id="linear-gradient-16" x1="-84839.27" y1="-92856.63" x2="-84759.16" y2="-92856.63" xlink:href="#linear-gradient-5"/><linearGradient id="linear-gradient-17" x1="93397.9" y1="-100769.62" x2="93478.01" y2="-100769.62" gradientTransform="matrix(0, 1, 1, 0, 100754.01, -93154.07)" xlink:href="#linear-gradient-5"/><linearGradient id="linear-gradient-18" x1="-76772.68" y1="85083.42" x2="-76718.55" y2="84973.76" xlink:href="#linear-gradient"/><linearGradient id="linear-gradient-19" x1="-76649.92" y1="85206.1" x2="-76595.79" y2="85096.44" xlink:href="#linear-gradient"/><linearGradient id="linear-gradient-20" x1="-84562.59" y1="-92540.49" x2="-84508.45" y2="-92650.16" gradientTransform="matrix(1, 0, 0, -1, 84765.42, -92583.94)" xlink:href="#linear-gradient"/><linearGradient id="linear-gradient-21" x1="93184" y1="-100453.16" x2="93238.14" y2="-100562.82" gradientTransform="matrix(0, 1, 1, 0, 100754.01, -93154.07)" xlink:href="#linear-gradient"/><linearGradient id="linear-gradient-22" x1="101096.66" y1="77293.44" x2="101150.79" y2="77183.77" gradientTransform="matrix(-1, 0, 0, 1, 101324.13, -77165.48)" xlink:href="#linear-gradient"/><linearGradient id="linear-gradient-23" x1="-84593.82" y1="-92611.5" x2="-84513.71" y2="-92611.5" xlink:href="#linear-gradient-5"/><linearGradient id="linear-gradient-24" x1="-76681.15" y1="85135.1" x2="-76601.05" y2="85135.1" gradientTransform="matrix(0, -1, -1, 0, 85335.56, -76595.35)" xlink:href="#linear-gradient-5"/><linearGradient id="linear-gradient-25" x1="101065.43" y1="77222.43" x2="101145.53" y2="77222.43" gradientTransform="matrix(-1, 0, 0, 1, 101324.13, -77165.48)" xlink:href="#linear-gradient-5"/><linearGradient id="linear-gradient-26" x1="93152.77" y1="-100524.17" x2="93232.88" y2="-100524.17" gradientTransform="matrix(0, 1, 1, 0, 100754.01, -93154.07)" xlink:href="#linear-gradient-5"/><linearGradient id="linear-gradient-27" x1="-84557.42" y1="-92591.01" x2="-84533.93" y2="-92638.61" gradientTransform="matrix(1, 0, 0, -1, 84765.42, -92583.94)" gradientUnits="userSpaceOnUse"><stop offset="0.35" stop-color="#fff" stop-opacity="0"/><stop offset="1" stop-color="#bde3dc"/></linearGradient><linearGradient id="linear-gradient-28" x1="-76644.76" y1="85155.58" x2="-76621.27" y2="85107.98" gradientTransform="matrix(0, -1, -1, 0, 85335.56, -76595.35)" xlink:href="#linear-gradient-27"/><linearGradient id="linear-gradient-29" x1="101101.82" y1="77242.91" x2="101125.32" y2="77195.31" gradientTransform="matrix(-1, 0, 0, 1, 101324.13, -77165.48)" xlink:href="#linear-gradient-27"/><linearGradient id="linear-gradient-30" x1="93189.16" y1="-100503.68" x2="93212.66" y2="-100551.28" gradientTransform="matrix(0, 1, 1, 0, 100754.01, -93154.07)" xlink:href="#linear-gradient-27"/><linearGradient id="linear-gradient-31" x1="-1322.54" y1="112623.21" x2="-1283.72" y2="112544.57" gradientTransform="matrix(-0.71, -0.71, -0.71, 0.71, 78755.89, -80479.08)" xlink:href="#linear-gradient"/><linearGradient id="linear-gradient-32" x1="-112000.46" y1="-17241" x2="-111961.65" y2="-17319.63" gradientTransform="matrix(0.71, -0.71, -0.71, -0.71, 67047.1, -91381.59)" xlink:href="#linear-gradient"/><linearGradient id="linear-gradient-33" x1="17863.75" y1="-127918.93" x2="17902.56" y2="-127997.56" gradientTransform="matrix(0.71, 0.71, 0.71, -0.71, 77949.61, -103090.37)" xlink:href="#linear-gradient"/><linearGradient id="linear-gradient-34" x1="128541.67" y1="1945.28" x2="128580.49" y2="1866.65" gradientTransform="matrix(-0.71, 0.71, 0.71, 0.71, 89658.39, -92187.87)" xlink:href="#linear-gradient"/><linearGradient id="linear-gradient-35" x1="-112022.85" y1="-17291.91" x2="-111965.42" y2="-17291.91" gradientTransform="matrix(0.71, -0.71, -0.71, -0.71, 67047.1, -91381.59)" xlink:href="#linear-gradient-5"/><linearGradient id="linear-gradient-36" x1="-1344.93" y1="112572.29" x2="-1287.49" y2="112572.29" gradientTransform="matrix(-0.71, -0.71, -0.71, 0.71, 78755.89, -80479.08)" xlink:href="#linear-gradient-5"/><linearGradient id="linear-gradient-37" x1="128519.28" y1="1894.37" x2="128576.71" y2="1894.37" gradientTransform="matrix(-0.71, 0.71, 0.71, 0.71, 89658.39, -92187.87)" xlink:href="#linear-gradient-5"/><linearGradient id="linear-gradient-38" x1="17841.36" y1="-127969.84" x2="17898.79" y2="-127969.84" gradientTransform="matrix(0.71, 0.71, 0.71, -0.71, 77949.61, -103090.37)" xlink:href="#linear-gradient-5"/><linearGradient id="linear-gradient-39" x1="-111996.76" y1="-17277.23" x2="-111979.91" y2="-17311.35" gradientTransform="matrix(0.71, -0.71, -0.71, -0.71, 67047.1, -91381.59)" xlink:href="#linear-gradient-27"/><linearGradient id="linear-gradient-40" x1="-1318.84" y1="112586.98" x2="-1301.99" y2="112552.85" gradientTransform="matrix(-0.71, -0.71, -0.71, 0.71, 78755.89, -80479.08)" xlink:href="#linear-gradient-27"/><linearGradient id="linear-gradient-41" x1="128545.37" y1="1909.06" x2="128562.22" y2="1874.93" gradientTransform="matrix(-0.71, 0.71, 0.71, 0.71, 89658.39, -92187.87)" xlink:href="#linear-gradient-27"/><linearGradient id="linear-gradient-42" x1="17867.45" y1="-127955.15" x2="17884.3" y2="-127989.28" gradientTransform="matrix(0.71, 0.71, 0.71, -0.71, 77949.61, -103090.37)" xlink:href="#linear-gradient-27"/><linearGradient id="linear-gradient-43" x1="-1496.15" y1="112623.2" x2="-1457.34" y2="112544.57" gradientTransform="matrix(-0.71, -0.71, -0.71, 0.71, 78755.89, -80479.08)" xlink:href="#linear-gradient"/><linearGradient id="linear-gradient-44" x1="-112000.45" y1="-17414.62" x2="-111961.64" y2="-17493.25" gradientTransform="matrix(0.71, -0.71, -0.71, -0.71, 67047.1, -91381.59)" xlink:href="#linear-gradient"/><linearGradient id="linear-gradient-45" x1="18037.36" y1="-127918.92" x2="18076.18" y2="-127997.55" gradientTransform="matrix(0.71, 0.71, 0.71, -0.71, 77949.61, -103090.37)" xlink:href="#linear-gradient"/><linearGradient id="linear-gradient-46" x1="128541.67" y1="2118.9" x2="128580.48" y2="2040.27" gradientTransform="matrix(-0.71, 0.71, 0.71, 0.71, 89658.39, -92187.87)" xlink:href="#linear-gradient"/><linearGradient id="linear-gradient-47" x1="-112022.85" y1="-17465.53" x2="-111965.41" y2="-17465.53" gradientTransform="matrix(0.71, -0.71, -0.71, -0.71, 67047.1, -91381.59)" xlink:href="#linear-gradient-5"/><linearGradient id="linear-gradient-48" x1="-1518.54" y1="112572.29" x2="-1461.11" y2="112572.29" gradientTransform="matrix(-0.71, -0.71, -0.71, 0.71, 78755.89, -80479.08)" xlink:href="#linear-gradient-5"/><linearGradient id="linear-gradient-49" x1="128519.27" y1="2067.98" x2="128576.71" y2="2067.98" gradientTransform="matrix(-0.71, 0.71, 0.71, 0.71, 89658.39, -92187.87)" xlink:href="#linear-gradient-5"/><linearGradient id="linear-gradient-50" x1="18014.97" y1="-127969.83" x2="18072.41" y2="-127969.83" gradientTransform="matrix(0.71, 0.71, 0.71, -0.71, 77949.61, -103090.37)" xlink:href="#linear-gradient-5"/><linearGradient id="linear-gradient-51" x1="-111996.75" y1="-17450.84" x2="-111979.91" y2="-17484.97" gradientTransform="matrix(0.71, -0.71, -0.71, -0.71, 67047.1, -91381.59)" xlink:href="#linear-gradient-27"/><linearGradient id="linear-gradient-52" x1="-1492.45" y1="112586.98" x2="-1475.61" y2="112552.85" gradientTransform="matrix(-0.71, -0.71, -0.71, 0.71, 78755.89, -80479.08)" xlink:href="#linear-gradient-27"/><linearGradient id="linear-gradient-53" x1="128545.37" y1="2082.68" x2="128562.21" y2="2048.55" gradientTransform="matrix(-0.71, 0.71, 0.71, 0.71, 89658.39, -92187.87)" xlink:href="#linear-gradient-27"/><linearGradient id="linear-gradient-54" x1="18041.06" y1="-127955.14" x2="18057.91" y2="-127989.27" gradientTransform="matrix(0.71, 0.71, 0.71, -0.71, 77949.61, -103090.37)" xlink:href="#linear-gradient-27"/><linearGradient id="linear-gradient-55" x1="-76772.68" y1="85328.87" x2="-76718.55" y2="85219.21" xlink:href="#linear-gradient"/><linearGradient id="linear-gradient-56" x1="-84685.35" y1="-92663.25" x2="-84631.22" y2="-92772.92" gradientTransform="matrix(1, 0, 0, -1, 84765.42, -92583.94)" xlink:href="#linear-gradient"/><linearGradient id="linear-gradient-57" x1="93306.76" y1="-100575.93" x2="93360.89" y2="-100685.59" gradientTransform="matrix(0, 1, 1, 0, 100754.01, -93154.07)" xlink:href="#linear-gradient"/><linearGradient id="linear-gradient-58" x1="101219.43" y1="77416.2" x2="101273.56" y2="77306.53" gradientTransform="matrix(-1, 0, 0, 1, 101324.13, -77165.48)" xlink:href="#linear-gradient"/><linearGradient id="linear-gradient-59" x1="-84716.58" y1="-92734.26" x2="-84636.48" y2="-92734.26" xlink:href="#linear-gradient-5"/><linearGradient id="linear-gradient-60" x1="-76803.91" y1="85257.86" x2="-76723.81" y2="85257.86" gradientTransform="matrix(0, -1, -1, 0, 85335.56, -76595.35)" xlink:href="#linear-gradient-5"/><linearGradient id="linear-gradient-61" x1="101188.2" y1="77345.19" x2="101268.3" y2="77345.19" gradientTransform="matrix(-1, 0, 0, 1, 101324.13, -77165.48)" xlink:href="#linear-gradient-5"/><linearGradient id="linear-gradient-62" x1="93275.53" y1="-100646.93" x2="93355.64" y2="-100646.93" gradientTransform="matrix(0, 1, 1, 0, 100754.01, -93154.07)" xlink:href="#linear-gradient-5"/><linearGradient id="linear-gradient-63" x1="-84680.19" y1="-92713.77" x2="-84656.7" y2="-92761.37" xlink:href="#linear-gradient-27"/><linearGradient id="linear-gradient-64" x1="-76767.52" y1="85278.35" x2="-76744.03" y2="85230.75" gradientTransform="matrix(0, -1, -1, 0, 85335.56, -76595.35)" xlink:href="#linear-gradient-27"/><linearGradient id="linear-gradient-65" x1="101224.59" y1="77365.67" x2="101248.08" y2="77318.07" gradientTransform="matrix(-1, 0, 0, 1, 101324.13, -77165.48)" xlink:href="#linear-gradient-27"/><linearGradient id="linear-gradient-66" x1="93311.92" y1="-100626.44" x2="93335.42" y2="-100674.04" gradientTransform="matrix(0, 1, 1, 0, 100754.01, -93154.07)" xlink:href="#linear-gradient-27"/><linearGradient id="linear-gradient-67" x1="-76649.92" y1="85451.55" x2="-76595.79" y2="85341.89" xlink:href="#linear-gradient"/><linearGradient id="linear-gradient-68" x1="-84808.04" y1="-92540.49" x2="-84753.9" y2="-92650.16" gradientTransform="matrix(1, 0, 0, -1, 84765.42, -92583.94)" xlink:href="#linear-gradient"/><linearGradient id="linear-gradient-69" x1="93184" y1="-100698.61" x2="93238.14" y2="-100808.27" gradientTransform="matrix(0, 1, 1, 0, 100754.01, -93154.07)" xlink:href="#linear-gradient"/><linearGradient id="linear-gradient-70" x1="101342.11" y1="77293.44" x2="101396.24" y2="77183.77" gradientTransform="matrix(-1, 0, 0, 1, 101324.13, -77165.48)" xlink:href="#linear-gradient"/><linearGradient id="linear-gradient-71" x1="-84839.27" y1="-92611.5" x2="-84759.16" y2="-92611.5" xlink:href="#linear-gradient-5"/><linearGradient id="linear-gradient-72" x1="101310.88" y1="77222.43" x2="101390.98" y2="77222.43" gradientTransform="matrix(-1, 0, 0, 1, 101324.13, -77165.48)" xlink:href="#linear-gradient-5"/><linearGradient id="linear-gradient-73" x1="93152.77" y1="-100769.62" x2="93232.88" y2="-100769.62" gradientTransform="matrix(0, 1, 1, 0, 100754.01, -93154.07)" xlink:href="#linear-gradient-5"/><linearGradient id="linear-gradient-74" x1="-84802.87" y1="-92591.01" x2="-84779.38" y2="-92638.61" xlink:href="#linear-gradient-27"/><linearGradient id="linear-gradient-75" x1="93189.16" y1="-100749.13" x2="93212.66" y2="-100796.73" gradientTransform="matrix(0, 1, 1, 0, 100754.01, -93154.07)" xlink:href="#linear-gradient-27"/><linearGradient id="linear-gradient-76" x1="-1322.59" y1="112796.76" x2="-1283.78" y2="112718.13" gradientTransform="matrix(-0.71, -0.71, -0.71, 0.71, 78755.89, -80479.08)" xlink:href="#linear-gradient"/><linearGradient id="linear-gradient-77" x1="-112174.01" y1="-17241.06" x2="-112135.2" y2="-17319.69" gradientTransform="matrix(0.71, -0.71, -0.71, -0.71, 67047.1, -91381.59)" xlink:href="#linear-gradient"/><linearGradient id="linear-gradient-78" x1="17863.8" y1="-128092.48" x2="17902.62" y2="-128171.11" gradientTransform="matrix(0.71, 0.71, 0.71, -0.71, 77949.61, -103090.37)" xlink:href="#linear-gradient"/><linearGradient id="linear-gradient-79" x1="128715.23" y1="1945.34" x2="128754.04" y2="1866.7" gradientTransform="matrix(-0.71, 0.71, 0.71, 0.71, 89658.39, -92187.87)" xlink:href="#linear-gradient"/><linearGradient id="linear-gradient-80" x1="-1344.98" y1="112745.85" x2="-1287.55" y2="112745.85" gradientTransform="matrix(-0.71, -0.71, -0.71, 0.71, 78755.89, -80479.08)" xlink:href="#linear-gradient-5"/><linearGradient id="linear-gradient-81" x1="128692.84" y1="1894.42" x2="128750.27" y2="1894.42" gradientTransform="matrix(-0.71, 0.71, 0.71, 0.71, 89658.39, -92187.87)" xlink:href="#linear-gradient-5"/><linearGradient id="linear-gradient-82" x1="17841.41" y1="-128143.39" x2="17898.85" y2="-128143.39" gradientTransform="matrix(0.71, 0.71, 0.71, -0.71, 77949.61, -103090.37)" xlink:href="#linear-gradient-5"/><linearGradient id="linear-gradient-83" x1="101219.43" y1="77171.07" x2="101273.56" y2="77061.4" gradientTransform="matrix(-1, 0, 0, 1, 101324.13, -77165.48)" xlink:href="#linear-gradient"/><pattern id="Vortex_1" data-name="Vortex 1" x="0.5" y="0.5" width="245.45" height="245.13" patternUnits="userSpaceOnUse" viewBox="0 0 245.45 245.13"><rect class="cls-1" width="245.45" height="245.13"/><path class="cls-2" d="M122.77,287.38a92.09,92.09,0,0,0,27.06,65.33l3.94-3.94a76.28,76.28,0,0,1,61.38-121.56,60.17,60.17,0,0,1,60.17,60.17A76.28,76.28,0,1,0,122.77,287.38Z"/><circle class="cls-3" cx="215.16" cy="287.39" r="60.17"/><path class="cls-4" d="M215.16,195a92.09,92.09,0,0,0-65.33,27.06l3.94,3.94a76.28,76.28,0,0,1,121.56,61.39,60.17,60.17,0,0,1-60.18,60.17A76.28,76.28,0,1,0,215.16,195Z"/><path class="cls-5" d="M307.54,287.39a92.09,92.09,0,0,0-27.06-65.33L276.54,226a76.28,76.28,0,0,1-61.38,121.56A60.17,60.17,0,0,1,155,287.39,76.28,76.28,0,1,0,307.54,287.39Z"/><path class="cls-6" d="M215.15,379.77a92.09,92.09,0,0,0,65.33-27.06l-3.94-3.94A76.28,76.28,0,0,1,155,287.38a60.17,60.17,0,0,1,60.18-60.17A76.28,76.28,0,1,0,215.15,379.77Z"/><path class="cls-7" d="M242.87,244.84a49.68,49.68,0,0,0-70.26,0A60,60,0,0,0,155,287.39h3.63a49.68,49.68,0,0,1,84.25-27.71,39.19,39.19,0,0,1,0,55.43A49.68,49.68,0,0,0,242.87,244.84Z"/><path class="cls-8" d="M172.61,259.67a49.68,49.68,0,0,0,0,70.26,60,60,0,0,0,42.55,17.63v-3.63a49.68,49.68,0,0,1-27.71-84.25,39.19,39.19,0,0,1,55.43,0A49.68,49.68,0,0,0,172.61,259.67Z"/><path class="cls-9" d="M257.7,315.1a49.68,49.68,0,0,0,0-70.26,60,60,0,0,0-42.55-17.62v3.63a49.68,49.68,0,0,1,27.71,84.25,39.19,39.19,0,0,1-55.43,0A49.68,49.68,0,0,0,257.7,315.1Z"/><path class="cls-10" d="M45.54,334.22a66,66,0,0,0,46.84,19.4v-4a54.69,54.69,0,0,1-30.51-92.75,43.14,43.14,0,0,1,61,0A54.69,54.69,0,1,0,45.54,334.22Z"/><circle class="cls-3" cx="92.39" cy="287.38" r="43.14" transform="translate(-176.15 149.5) rotate(-45)"/><path class="cls-11" d="M45.55,240.54a66,66,0,0,0-19.4,46.84h4a54.69,54.69,0,0,1,92.75-30.51,43.14,43.14,0,0,1,0,61A54.69,54.69,0,1,0,45.55,240.54Z"/><path class="cls-12" d="M139.23,240.55a66,66,0,0,0-46.84-19.4v4A54.69,54.69,0,0,1,122.9,317.9a43.14,43.14,0,0,1-61,0A54.69,54.69,0,1,0,139.23,240.55Z"/><path class="cls-13" d="M128,279.87a35.62,35.62,0,0,0-35.62-35.62,43,43,0,0,0-30.51,12.64l1.84,1.84a35.62,35.62,0,0,1,56.77,28.67,28.1,28.1,0,0,1-28.1,28.1A35.62,35.62,0,0,0,128,279.87Z"/><path class="cls-14" d="M-122.68,287.38a92.09,92.09,0,0,0,27.06,65.33l3.94-3.94a75.93,75.93,0,0,1-14.9-45.28,76.28,76.28,0,0,1,76.28-76.28,60.17,60.17,0,0,1,60.17,60.17A76.28,76.28,0,0,0-46.4,211.1,76.28,76.28,0,0,0-122.68,287.38Z"/><circle class="cls-3" cx="-30.29" cy="287.39" r="60.17"/><path class="cls-15" d="M-30.29,195a92.09,92.09,0,0,0-65.33,27.06l3.94,3.94A75.93,75.93,0,0,1-46.4,211.1a76.28,76.28,0,0,1,76.28,76.28,60.17,60.17,0,0,1-60.18,60.17A76.28,76.28,0,0,0,46,271.28,76.28,76.28,0,0,0-30.29,195Z"/><path class="cls-16" d="M62.09,287.39A92.09,92.09,0,0,0,35,222.06L31.09,226A75.93,75.93,0,0,1,46,271.28,76.28,76.28,0,0,1-30.3,347.57a60.17,60.17,0,0,1-60.17-60.18,76.28,76.28,0,0,0,76.28,76.28A76.28,76.28,0,0,0,62.09,287.39Z"/><path class="cls-17" d="M-30.3,379.77A92.09,92.09,0,0,0,35,352.71l-3.94-3.94a75.93,75.93,0,0,1-45.28,14.9,76.28,76.28,0,0,1-76.28-76.28A60.17,60.17,0,0,1-30.3,227.21a76.28,76.28,0,0,0-76.28,76.28A76.28,76.28,0,0,0-30.3,379.77Z"/><path class="cls-18" d="M-2.58,244.84a49.68,49.68,0,0,0-70.26,0,60,60,0,0,0-17.62,42.55h3.63a49.46,49.46,0,0,1,14-27.71,49.68,49.68,0,0,1,70.26,0,39.19,39.19,0,0,1,0,55.43A49.68,49.68,0,0,0-2.58,244.84Z"/><path class="cls-19" d="M12.25,315.1a49.68,49.68,0,0,0,0-70.26A60,60,0,0,0-30.3,227.22v3.63a49.46,49.46,0,0,1,27.71,14,49.68,49.68,0,0,1,0,70.26,39.19,39.19,0,0,1-55.43,0A49.68,49.68,0,0,0,12.25,315.1Z"/><path class="cls-20" d="M245.45,165a92.09,92.09,0,0,0,27.06,65.33l3.94-3.94a76.28,76.28,0,0,1,61.38-121.56A60.17,60.17,0,0,1,398,165,76.28,76.28,0,1,0,245.45,165Z"/><path class="cls-21" d="M122.77,42.25a92.09,92.09,0,0,0,27.06,65.33l3.94-3.94A76.28,76.28,0,0,1,215.16-17.93a60.17,60.17,0,0,1,60.17,60.17A76.28,76.28,0,1,0,122.77,42.25Z"/><circle class="cls-3" cx="215.16" cy="42.25" r="60.17"/><circle class="cls-3" cx="215.16" cy="42.25" r="39.19" transform="translate(33.15 164.53) rotate(-45)"/><path class="cls-22" d="M215.16-50.13a92.09,92.09,0,0,0-65.33,27.06l3.94,3.94A76.28,76.28,0,0,1,275.33,42.25a60.17,60.17,0,0,1-60.18,60.17A76.28,76.28,0,1,0,215.16-50.13Z"/><path class="cls-23" d="M307.54,42.26a92.09,92.09,0,0,0-27.06-65.33l-3.94,3.94a76.28,76.28,0,0,1-61.38,121.56A60.17,60.17,0,0,1,155,42.26,76.28,76.28,0,1,0,307.54,42.26Z"/><path class="cls-24" d="M215.15,134.64a92.09,92.09,0,0,0,65.33-27.06l-3.94-3.94A76.28,76.28,0,0,1,155,42.25a60.17,60.17,0,0,1,60.18-60.17A76.28,76.28,0,1,0,215.15,134.64Z"/><path class="cls-25" d="M242.87-.29a49.68,49.68,0,0,0-70.26,0A60,60,0,0,0,155,42.25h3.63a49.68,49.68,0,0,1,84.25-27.71,39.19,39.19,0,0,1,0,55.43A49.68,49.68,0,0,0,242.87-.29Z"/><path class="cls-26" d="M172.61,14.53a49.68,49.68,0,0,0,0,70.26,60,60,0,0,0,42.55,17.62V98.79a49.68,49.68,0,0,1-27.71-84.25,39.19,39.19,0,0,1,55.43,0A49.68,49.68,0,0,0,172.61,14.53Z"/><path class="cls-27" d="M187.43,84.8a49.68,49.68,0,0,0,70.26,0,60,60,0,0,0,17.62-42.55h-3.63A49.68,49.68,0,0,1,187.44,70a39.19,39.19,0,0,1,0-55.43A49.68,49.68,0,0,0,187.43,84.8Z"/><path class="cls-28" d="M257.7,70a49.68,49.68,0,0,0,0-70.26,60,60,0,0,0-42.55-17.62v3.63A49.68,49.68,0,0,1,242.87,70a39.19,39.19,0,0,1-55.43,0A49.68,49.68,0,0,0,257.7,70Z"/><path class="cls-29" d="M230.16,6.05a39.06,39.06,0,0,0-30,0l0.9,2.18A32.35,32.35,0,0,1,238.74,52h0a25.49,25.49,0,0,1-33.32,13.8v0A32.35,32.35,0,0,0,230.16,6.05Z"/><path class="cls-30" d="M179,27.25a39.07,39.07,0,0,0,0,30l2.19-.91a32.35,32.35,0,0,1,43.79-37.67v0A25.49,25.49,0,0,1,238.72,52h0A32.36,32.36,0,0,0,179,27.25Z"/><path class="cls-31" d="M200.15,78.46a39.06,39.06,0,0,0,30,0l-0.9-2.18a32.35,32.35,0,0,1-37.67-43.79h0a25.49,25.49,0,0,1,33.32-13.8v0A32.35,32.35,0,0,0,200.15,78.46Z"/><path class="cls-32" d="M251.36,57.26a39.07,39.07,0,0,0,0-30l-2.19.91a32.35,32.35,0,0,1-43.79,37.67v0a25.49,25.49,0,0,1-13.8-33.32h0A32.36,32.36,0,0,0,251.36,57.26Z"/><circle class="cls-3" cx="215.16" cy="42.25" r="25.51"/><path class="cls-33" d="M45.54,89.09a66,66,0,0,0,46.84,19.4v-4A54.69,54.69,0,0,1,61.87,11.74a43.14,43.14,0,0,1,61,0A54.69,54.69,0,1,0,45.54,89.09Z"/><circle class="cls-3" cx="92.39" cy="42.25" r="43.14" transform="translate(-2.82 77.7) rotate(-45)"/><circle class="cls-3" cx="92.39" cy="42.25" r="28.1"/><path class="cls-34" d="M45.55-4.59a66,66,0,0,0-19.4,46.84h4A54.69,54.69,0,0,1,122.9,11.74a43.14,43.14,0,0,1,0,61A54.69,54.69,0,1,0,45.55-4.59Z"/><path class="cls-35" d="M139.23-4.58A66,66,0,0,0,92.39-24v4A54.69,54.69,0,0,1,122.9,72.77a43.14,43.14,0,0,1-61,0A54.69,54.69,0,1,0,139.23-4.58Z"/><path class="cls-36" d="M139.22,89.1a66,66,0,0,0,19.4-46.84h-4A54.69,54.69,0,0,1,61.87,72.76a43.14,43.14,0,0,1,0-61A54.69,54.69,0,1,0,139.22,89.1Z"/><path class="cls-37" d="M84.87,6.63A35.62,35.62,0,0,0,49.24,42.25,43,43,0,0,0,61.88,72.76l1.84-1.84A35.62,35.62,0,0,1,92.39,14.15a28.1,28.1,0,0,1,28.1,28.1A35.62,35.62,0,0,0,84.87,6.63Z"/><path class="cls-38" d="M56.76,49.77A35.62,35.62,0,0,0,92.38,85.39a43,43,0,0,0,30.51-12.64l-1.84-1.84A35.62,35.62,0,0,1,64.28,42.25a28.1,28.1,0,0,1,28.1-28.1A35.62,35.62,0,0,0,56.76,49.77Z"/><path class="cls-39" d="M99.9,77.88a35.62,35.62,0,0,0,35.62-35.62,43,43,0,0,0-12.64-30.51L121,13.59A35.62,35.62,0,0,1,92.38,70.36a28.1,28.1,0,0,1-28.1-28.1A35.62,35.62,0,0,0,99.9,77.88Z"/><path class="cls-40" d="M128,34.74A35.62,35.62,0,0,0,92.39-.89,43,43,0,0,0,61.88,11.75l1.84,1.84a35.62,35.62,0,0,1,56.77,28.66,28.1,28.1,0,0,1-28.1,28.1A35.62,35.62,0,0,0,128,34.74Z"/><path class="cls-41" d="M81.64,16.29A28,28,0,0,0,66.43,31.5L68,32.15a23.2,23.2,0,0,1,41.3,3.1h0a18.28,18.28,0,0,1-9.9,23.89h0A23.2,23.2,0,1,0,81.64,16.29Z"/><path class="cls-42" d="M66.43,53A28,28,0,0,0,81.63,68.21l0.65-1.57a23.2,23.2,0,0,1,3.1-41.3h0a18.28,18.28,0,0,1,23.89,9.9h0A23.2,23.2,0,0,0,66.43,53Z"/><path class="cls-43" d="M103.14,68.21A28,28,0,0,0,118.34,53l-1.57-.65a23.2,23.2,0,0,1-41.3-3.1h0a18.28,18.28,0,0,1,9.9-23.89h0A23.2,23.2,0,0,0,103.14,68.21Z"/><path class="cls-44" d="M118.35,31.5A28,28,0,0,0,103.14,16.3l-0.65,1.57a23.2,23.2,0,0,1-3.1,41.3h0a18.28,18.28,0,0,1-23.89-9.9h0A23.2,23.2,0,0,0,118.35,31.5Z"/><circle class="cls-3" cx="92.39" cy="42.25" r="18.29" transform="translate(-2.82 77.7) rotate(-45)"/><path class="cls-45" d="M168.31,211.85a66,66,0,0,0,46.84,19.4v-4a54.69,54.69,0,0,1-30.51-92.75,43.14,43.14,0,0,1,61,0A54.69,54.69,0,1,0,168.31,211.85Z"/><circle class="cls-3" cx="215.16" cy="165.01" r="43.14" transform="translate(-53.66 200.47) rotate(-45)"/><circle class="cls-3" cx="215.16" cy="165.01" r="28.1"/><path class="cls-46" d="M168.32,118.17A66,66,0,0,0,148.91,165h4a54.69,54.69,0,0,1,92.75-30.51,43.14,43.14,0,0,1,0,61A54.69,54.69,0,1,0,168.32,118.17Z"/><path class="cls-47" d="M262,118.17a66,66,0,0,0-46.84-19.4v4a54.69,54.69,0,0,1,30.51,92.75,43.14,43.14,0,0,1-61,0A54.69,54.69,0,1,0,262,118.17Z"/><path class="cls-48" d="M262,211.86A66,66,0,0,0,281.39,165h-4a54.69,54.69,0,0,1-92.75,30.51,43.14,43.14,0,0,1,0-61A54.69,54.69,0,1,0,262,211.86Z"/><path class="cls-49" d="M207.64,129.39A35.62,35.62,0,0,0,172,165a43,43,0,0,0,12.64,30.51l1.84-1.84a35.62,35.62,0,0,1,28.66-56.77,28.1,28.1,0,0,1,28.1,28.1A35.62,35.62,0,0,0,207.64,129.39Z"/><path class="cls-50" d="M179.53,172.53a35.62,35.62,0,0,0,35.62,35.62,43,43,0,0,0,30.51-12.64l-1.84-1.84A35.62,35.62,0,0,1,187.05,165a28.1,28.1,0,0,1,28.1-28.1A35.62,35.62,0,0,0,179.53,172.53Z"/><path class="cls-51" d="M222.67,200.64A35.62,35.62,0,0,0,258.3,165a43,43,0,0,0-12.64-30.51l-1.84,1.84a35.62,35.62,0,0,1-28.67,56.77A28.1,28.1,0,0,1,187,165,35.62,35.62,0,0,0,222.67,200.64Z"/><path class="cls-52" d="M250.78,157.5a35.62,35.62,0,0,0-35.62-35.62,43,43,0,0,0-30.51,12.64l1.84,1.84A35.62,35.62,0,0,1,243.26,165a28.1,28.1,0,0,1-28.1,28.1A35.62,35.62,0,0,0,250.78,157.5Z"/><path class="cls-53" d="M204.41,139.05a28,28,0,0,0-15.21,15.21l1.57,0.65a23.2,23.2,0,0,1,41.3,3.1h0a18.28,18.28,0,0,1-9.9,23.89h0A23.2,23.2,0,1,0,204.41,139.05Z"/><path class="cls-54" d="M189.19,175.76A28,28,0,0,0,204.4,191L205,189.4a23.2,23.2,0,0,1,3.1-41.3h0A18.28,18.28,0,0,1,232,158h0A23.2,23.2,0,0,0,189.19,175.76Z"/><path class="cls-55" d="M225.91,191a28,28,0,0,0,15.21-15.21l-1.57-.65a23.2,23.2,0,0,1-41.3-3.1h0a18.28,18.28,0,0,1,9.9-23.89h0A23.2,23.2,0,0,0,225.91,191Z"/><path class="cls-56" d="M241.12,154.26a28,28,0,0,0-15.21-15.21l-0.65,1.57a23.2,23.2,0,0,1-3.1,41.3h0a18.28,18.28,0,0,1-23.89-9.9h0A23.2,23.2,0,0,0,241.12,154.26Z"/><circle class="cls-3" cx="215.16" cy="165.01" r="18.29" transform="translate(-53.66 200.47) rotate(-45)"/><path class="cls-57" d="M0,165a92.09,92.09,0,0,0,27.06,65.33L31,226.39A76.28,76.28,0,0,1,92.39,104.83,60.17,60.17,0,0,1,152.56,165,76.28,76.28,0,1,0,0,165Z"/><circle class="cls-3" cx="92.39" cy="165.01" r="60.17"/><circle class="cls-3" cx="92.39" cy="165.01" r="39.19" transform="translate(-89.62 113.67) rotate(-45)"/><path class="cls-58" d="M92.39,72.62A92.09,92.09,0,0,0,27.06,99.69L31,103.63A76.28,76.28,0,0,1,152.57,165a60.17,60.17,0,0,1-60.18,60.17A76.28,76.28,0,1,0,92.39,72.62Z"/><path class="cls-59" d="M184.77,165a92.09,92.09,0,0,0-27.06-65.33l-3.94,3.94A76.28,76.28,0,0,1,92.39,225.19,60.17,60.17,0,0,1,32.21,165,76.28,76.28,0,1,0,184.77,165Z"/><path class="cls-60" d="M92.38,257.4a92.09,92.09,0,0,0,65.33-27.06l-3.94-3.94A76.28,76.28,0,0,1,32.21,165a60.17,60.17,0,0,1,60.18-60.17A76.28,76.28,0,1,0,92.38,257.4Z"/><path class="cls-61" d="M120.11,122.46a49.68,49.68,0,0,0-70.26,0A60,60,0,0,0,32.22,165h3.63A49.68,49.68,0,0,1,120.1,137.3a39.19,39.19,0,0,1,0,55.43A49.68,49.68,0,0,0,120.11,122.46Z"/><path class="cls-62" d="M49.84,137.29a49.68,49.68,0,0,0,0,70.26,60,60,0,0,0,42.55,17.62v-3.63a49.68,49.68,0,0,1-27.71-84.25,39.19,39.19,0,0,1,55.43,0A49.68,49.68,0,0,0,49.84,137.29Z"/><path class="cls-63" d="M64.67,207.56a49.68,49.68,0,0,0,70.26,0A60,60,0,0,0,152.56,165h-3.63a49.68,49.68,0,0,1-84.25,27.71,39.19,39.19,0,0,1,0-55.43A49.68,49.68,0,0,0,64.67,207.56Z"/><path class="cls-64" d="M134.93,192.73a49.68,49.68,0,0,0,0-70.26,60,60,0,0,0-42.55-17.62v3.63a49.68,49.68,0,0,1,27.71,84.25,39.19,39.19,0,0,1-55.43,0A49.68,49.68,0,0,0,134.93,192.73Z"/><path class="cls-65" d="M107.39,128.81a39.06,39.06,0,0,0-30,0L78.3,131A32.36,32.36,0,0,1,116,174.78h0a25.49,25.49,0,0,1-33.32,13.8v0A32.35,32.35,0,1,0,107.39,128.81Z"/><path class="cls-66" d="M56.18,150a39.07,39.07,0,0,0,0,30l2.19-.91a32.35,32.35,0,0,1,43.79-37.67v0a25.49,25.49,0,0,1,13.8,33.32h0A32.36,32.36,0,0,0,56.18,150Z"/><path class="cls-67" d="M77.39,201.22a39.06,39.06,0,0,0,30,0l-0.9-2.18A32.35,32.35,0,0,1,68.8,155.25h0a25.49,25.49,0,0,1,33.32-13.8v0A32.36,32.36,0,0,0,77.39,201.22Z"/><path class="cls-68" d="M128.59,180a39.07,39.07,0,0,0,0-30l-2.19.9A32.35,32.35,0,0,1,82.62,188.6v0a25.49,25.49,0,0,1-13.8-33.32h0A32.36,32.36,0,0,0,128.59,180Z"/><circle class="cls-3" cx="92.39" cy="165.01" r="25.51"/><path class="cls-69" d="M-122.68,42.25a92.09,92.09,0,0,0,27.06,65.33l3.94-3.94a75.93,75.93,0,0,1-14.9-45.28A76.28,76.28,0,0,1-30.29-17.93,60.17,60.17,0,0,1,29.88,42.25,76.28,76.28,0,0,0-46.4-34,76.28,76.28,0,0,0-122.68,42.25Z"/><circle class="cls-3" cx="-30.29" cy="42.25" r="60.17"/><circle class="cls-3" cx="-30.29" cy="42.25" r="39.19" transform="translate(-38.75 -9.04) rotate(-45)"/><path class="cls-70" d="M-30.29-50.13A92.09,92.09,0,0,0-95.62-23.07l3.94,3.94A75.93,75.93,0,0,1-46.4-34,76.28,76.28,0,0,1,29.88,42.25a60.17,60.17,0,0,1-60.18,60.17A76.28,76.28,0,0,0,46,26.15,76.28,76.28,0,0,0-30.29-50.13Z"/><path class="cls-71" d="M62.09,42.26A92.09,92.09,0,0,0,35-23.07l-3.94,3.94A75.93,75.93,0,0,1,46,26.15,76.28,76.28,0,0,1-30.3,102.43,60.17,60.17,0,0,1-90.47,42.26a76.28,76.28,0,0,0,76.28,76.28A76.28,76.28,0,0,0,62.09,42.26Z"/><path class="cls-72" d="M-30.3,134.64A92.09,92.09,0,0,0,35,107.58l-3.94-3.94a75.93,75.93,0,0,1-45.28,14.9A76.28,76.28,0,0,1-90.48,42.25,60.17,60.17,0,0,1-30.3-17.92a76.28,76.28,0,0,0-76.28,76.28A76.28,76.28,0,0,0-30.3,134.64Z"/><path class="cls-73" d="M-2.58-.29a49.68,49.68,0,0,0-70.26,0A60,60,0,0,0-90.46,42.25h3.63a49.46,49.46,0,0,1,14-27.71,49.68,49.68,0,0,1,70.26,0A39.19,39.19,0,0,1-2.58,70,49.68,49.68,0,0,0-2.58-.29Z"/><path class="cls-74" d="M-58,84.8a49.68,49.68,0,0,0,70.26,0A60,60,0,0,0,29.87,42.25H26.24A49.46,49.46,0,0,1,12.25,70,49.68,49.68,0,0,1-58,70a39.19,39.19,0,0,1,0-55.43A49.68,49.68,0,0,0-58,84.8Z"/><path class="cls-75" d="M12.25,70a49.68,49.68,0,0,0,0-70.26A60,60,0,0,0-30.3-17.92v3.63A49.46,49.46,0,0,1-2.58-.29,49.68,49.68,0,0,1-2.58,70,39.19,39.19,0,0,1-58,70,49.68,49.68,0,0,0,12.25,70Z"/><path class="cls-76" d="M-15.29,6.05a39.06,39.06,0,0,0-30,0l0.9,2.18A32.2,32.2,0,0,1-24.22,9.75,32.35,32.35,0,0,1-6.71,52h0A25.51,25.51,0,0,1-30.29,67.76,25.4,25.4,0,0,1-40,65.82v0A32.35,32.35,0,0,0,2.22,48.32,32.36,32.36,0,0,0-15.29,6.05Z"/><path class="cls-77" d="M5.91,57.26a39.07,39.07,0,0,0,0-30l-2.19.91A32.21,32.21,0,0,1,2.21,48.33,32.36,32.36,0,0,1-40.06,65.84v0A25.51,25.51,0,0,1-55.8,42.25a25.37,25.37,0,0,1,1.95-9.75h0A32.36,32.36,0,0,0-36.37,74.77,32.36,32.36,0,0,0,5.91,57.26Z"/><path class="cls-78" d="M-77.14,211.85a66,66,0,0,0,46.84,19.4v-4a54.45,54.45,0,0,1-30.51-15.4,54.7,54.7,0,0,1,0-77.35,43.14,43.14,0,0,1,61,0,54.69,54.69,0,0,0-77.35,0A54.7,54.7,0,0,0-77.14,211.85Z"/><circle class="cls-3" cx="-30.29" cy="165.01" r="43.14" transform="translate(-125.55 26.91) rotate(-45)"/><path class="cls-79" d="M-77.13,118.17A66,66,0,0,0-96.54,165h4a54.45,54.45,0,0,1,15.4-30.51,54.69,54.69,0,0,1,77.35,0,43.14,43.14,0,0,1,0,61,54.69,54.69,0,0,0,0-77.35A54.7,54.7,0,0,0-77.13,118.17Z"/><path class="cls-80" d="M16.55,118.17a66,66,0,0,0-46.84-19.4v4A54.44,54.44,0,0,1,.21,118.17a54.69,54.69,0,0,1,0,77.35,43.14,43.14,0,0,1-61,0,54.69,54.69,0,0,0,77.35,0A54.7,54.7,0,0,0,16.55,118.17Z"/><path class="cls-81" d="M16.54,211.86A66,66,0,0,0,35.94,165h-4a54.45,54.45,0,0,1-15.4,30.51,54.7,54.7,0,0,1-77.35,0,43.14,43.14,0,0,1,0-61,54.69,54.69,0,0,0,0,77.35A54.7,54.7,0,0,0,16.54,211.86Z"/><path class="cls-82" d="M-65.92,172.53A35.62,35.62,0,0,0-30.3,208.15,43,43,0,0,0,.21,195.52l-1.84-1.84a35.46,35.46,0,0,1-21.15,7A35.62,35.62,0,0,1-58.4,165a28.1,28.1,0,0,1,28.1-28.1A35.62,35.62,0,0,0-65.92,172.53Z"/><path class="cls-83" d="M-22.78,200.64A35.62,35.62,0,0,0,12.85,165,43,43,0,0,0,.21,134.51l-1.84,1.84a35.48,35.48,0,0,1,7,21.15A35.62,35.62,0,0,1-30.3,193.12,28.1,28.1,0,0,1-58.4,165,35.62,35.62,0,0,0-22.78,200.64Z"/><path class="cls-84" d="M5.33,157.5a35.62,35.62,0,0,0-35.62-35.62A43,43,0,0,0-60.8,134.51l1.84,1.84a35.47,35.47,0,0,1,21.15-7A35.62,35.62,0,0,1-2.19,165a28.1,28.1,0,0,1-28.1,28.1A35.62,35.62,0,0,0,5.33,157.5Z"/><path class="cls-85" d="M92.38,12.27a92.09,92.09,0,0,0,65.33-27.06l-3.94-3.94a75.93,75.93,0,0,1-45.28,14.9A76.28,76.28,0,0,1,32.21-80.12a60.17,60.17,0,0,1,60.18-60.17A76.28,76.28,0,0,0,16.1-64,76.28,76.28,0,0,0,92.38,12.27Z"/></pattern></defs><title>header</title><rect class="cls-86" x="0.5" y="0.5" width="1256" height="264"/><text class="cls-87" transform="translate(291.11 183.59)">R A W D E R<tspan class="cls-88" x="896.78" y="0"> </tspan></text></svg>